<mxfile host="app.diagrams.net" modified="2023-03-06T22:09:39.346Z" agent="5.0 (Macintosh; Intel Mac OS X 10_15_7) AppleWebKit/605.1.15 (KHTML, like Gecko) Version/16.3 Safari/605.1.15" etag="sRW1FnJoT5Ebsmh-WxLG" version="21.0.2" type="github">
  <diagram name="PÃ¡gina-1" id="Rjr_Tc-WJmImjnq3ozbN">
    <mxGraphModel dx="1026" dy="630" grid="1" gridSize="10" guides="1" tooltips="1" connect="1" arrows="1" fold="1" page="1" pageScale="1" pageWidth="827" pageHeight="1169" math="0" shadow="0">
      <root>
        <mxCell id="0" />
        <mxCell id="1" parent="0" />
        <mxCell id="wNSlHxYYH5UjJ9IIXc9F-3" style="edgeStyle=orthogonalEdgeStyle;rounded=0;orthogonalLoop=1;jettySize=auto;html=1;" edge="1" parent="1" source="wNSlHxYYH5UjJ9IIXc9F-1" target="wNSlHxYYH5UjJ9IIXc9F-2">
          <mxGeometry relative="1" as="geometry" />
        </mxCell>
        <mxCell id="wNSlHxYYH5UjJ9IIXc9F-1" value="" style="rounded=1;whiteSpace=wrap;html=1;" vertex="1" parent="1">
          <mxGeometry x="280" y="160" width="120" height="60" as="geometry" />
        </mxCell>
        <mxCell id="wNSlHxYYH5UjJ9IIXc9F-2" value="" style="rounded=1;whiteSpace=wrap;html=1;" vertex="1" parent="1">
          <mxGeometry x="280" y="240" width="120" height="60" as="geometry" />
        </mxCell>
      </root>
    </mxGraphModel>
  </diagram>
</mxfile>
